<svg width="16" height="16" viewBox="0 0 16 16" fill="current" xmlns="http://www.w3.org/2000/svg">
<g clip-path="url(#clip0_40_203)">
<path d="M12.25 16H3.75C1.68225 16 0 14.3177 0 12.25V8.50202C0 8.01611 0.191938 7.56645 0.540469 7.23577C0.890875 6.90333 1.36631 6.72739 1.84537 6.75233C2.18672 6.7703 2.51506 6.88986 2.79487 7.09811L6.47969 9.85952C6.47969 9.85952 6.4825 9.86164 6.48391 9.86273C7.37659 10.5436 8.62344 10.5436 9.51613 9.86273C9.51613 9.86273 9.51894 9.86061 9.52034 9.85952L13.2035 7.09933C13.485 6.88986 13.8133 6.7703 14.1547 6.75233C14.6331 6.72723 15.1091 6.9033 15.4596 7.23577C15.8081 7.56645 16 8.01614 16 8.50202V12.25C16 14.3177 14.3177 16 12.25 16ZM1.75516 8.00002C1.62684 8.00002 1.49597 8.05233 1.40078 8.14264C1.332 8.20789 1.25 8.3232 1.25 8.50202V12.25C1.25 13.6285 2.3715 14.75 3.75 14.75H12.25C13.6285 14.75 14.75 13.6285 14.75 12.25V8.50202C14.75 8.3232 14.668 8.20789 14.5992 8.14264C14.498 8.04655 14.357 7.99358 14.2204 8.00064C14.1246 8.00567 14.0341 8.03939 13.9515 8.10089L10.272 10.8583C8.93391 11.8774 7.06616 11.8774 5.72803 10.8583L2.04688 8.09967C1.96591 8.03939 1.87547 8.00567 1.77966 8.00064C1.7715 8.00023 1.76334 8.00002 1.75516 8.00002Z" fill="current"/>
<path d="M1.67454 8.4728C1.67454 8.3044 1.75177 8.1958 1.81655 8.13435C1.86062 8.09253 1.91281 8.05937 1.96885 8.03645V5.08635V3.99742C1.96885 2.05004 3.55317 0.465729 5.50054 0.465729H10.6215C12.5689 0.465729 14.1532 2.05004 14.1532 3.99742V5.08635V8.06506C14.1869 8.08432 14.2184 8.10755 14.2466 8.13435C14.3114 8.1958 14.3886 8.3044 14.3886 8.4728V12.0026C14.3886 13.3008 13.3324 14.357 12.0342 14.357H4.029C2.73075 14.357 1.67454 13.3008 1.67454 12.0026V8.4728Z" fill="current"/>
<path d="M12.25 16H3.75C1.68225 16 0 14.3177 0 12.25V8.50202C0 8.01611 0.191938 7.56645 0.540469 7.23577C0.890875 6.90333 1.36631 6.72739 1.84537 6.75233C2.18672 6.7703 2.51506 6.88986 2.79487 7.09811L6.47969 9.85952C6.47969 9.85952 6.4825 9.86164 6.48391 9.86273C7.37659 10.5436 8.62344 10.5436 9.51613 9.86273C9.51613 9.86273 9.51894 9.86061 9.52034 9.85952L13.2035 7.09933C13.485 6.88986 13.8133 6.7703 14.1547 6.75233C14.6331 6.72723 15.1091 6.9033 15.4596 7.23577C15.8081 7.56645 16 8.01614 16 8.50202V12.25C16 14.3177 14.3177 16 12.25 16Z" fill="current"/>
<path fill-rule="evenodd" clip-rule="evenodd" d="M-0.147792 6.51033C0.400265 5.99037 1.14286 5.71443 1.89736 5.7537L1.89794 5.75373C2.44037 5.78229 2.95735 5.9725 3.39192 6.29592L3.39457 6.2979L7.08255 9.06169L7.08388 9.0627L7.08638 9.06459C7.08686 9.06496 7.089 9.06658 7.09188 9.0688C7.62632 9.47531 8.37566 9.47492 8.90969 9.06763L8.91006 9.06735L8.91348 9.06469L12.6065 6.29712C13.0422 5.97286 13.5591 5.78232 14.1021 5.75373C14.8564 5.71417 15.5998 5.99042 16.1478 6.5103C16.6978 7.0322 17 7.74536 17 8.50204V12.25C17 14.87 14.87 17 12.25 17H3.75C1.12997 17 -1 14.87 -1 12.25V8.50204C-1 7.74531 -0.69786 7.03223 -0.147792 6.51033ZM6.48391 9.86276L6.47969 9.85954L2.79487 7.09813C2.51506 6.88988 2.18672 6.77032 1.84538 6.75235C1.36631 6.72741 0.890875 6.90335 0.540469 7.23579C0.191938 7.56648 0 8.01613 0 8.50204V12.25C0 14.3178 1.68225 16 3.75 16H12.25C14.3178 16 16 14.3178 16 12.25V8.50204C16 8.01616 15.8081 7.56648 15.4596 7.23579C15.1091 6.90332 14.6331 6.72726 14.1547 6.75235C13.8133 6.77032 13.485 6.88988 13.2035 7.09935L9.52034 9.85954L9.51613 9.86276C8.62344 10.5436 7.37659 10.5436 6.48391 9.86276Z" fill="#FAFAFC"/>
<path d="M8.9375 6.65628H5.5625C5.21731 6.65628 4.9375 6.37647 4.9375 6.03128C4.9375 5.68609 5.21731 5.40628 5.5625 5.40628H8.9375C9.28269 5.40628 9.5625 5.68609 9.5625 6.03128C9.5625 6.37647 9.28269 6.65628 8.9375 6.65628ZM11.125 3.62503C11.125 3.27984 10.8452 3.00003 10.5 3.00003H5.5625C5.21731 3.00003 4.9375 3.27984 4.9375 3.62503C4.9375 3.97022 5.21731 4.25003 5.5625 4.25003H10.5C10.8452 4.25003 11.125 3.97022 11.125 3.62503Z" fill="#FAFAFC"/>
</g>
<defs>
<clipPath id="clip0_40_203">
<rect width="16" height="16" fill="current"/>
</clipPath>
</defs>
</svg>
