<svg width="16" height="17" viewBox="0 0 16 17" fill="current" xmlns="http://www.w3.org/2000/svg">
<g clip-path="url(#clip0_40_188)">
<path d="M13.6875 16.915C12.4124 16.915 11.375 15.8777 11.375 14.6025V8.85254C11.375 7.57741 12.4124 6.54004 13.6875 6.54004C14.9626 6.54004 16 7.57741 16 8.85254V14.6025C16 15.8777 14.9626 16.915 13.6875 16.915ZM2.3125 16.915C1.03737 16.915 0 15.8777 0 14.6025V10.4775C0 9.20241 1.03737 8.16504 2.3125 8.16504C3.58763 8.16504 4.625 9.20241 4.625 10.4775V14.6025C4.625 15.8777 3.58763 16.915 2.3125 16.915Z" fill="current"/>
<path d="M10.3125 12.165V14.6025C10.3125 15.8777 9.2751 16.915 7.99997 16.915C6.72485 16.915 5.68747 15.8777 5.68747 14.6025V6.35254H5.45369C4.80007 6.35254 4.21666 5.9661 3.96735 5.36804C3.71635 4.76582 3.84778 4.10182 4.31035 3.63516L6.26513 1.66323C6.74341 1.18076 7.38172 0.915039 8.06247 0.915039C8.74322 0.915039 9.38153 1.18076 9.85978 1.66326L11.8146 3.6352C12.2771 4.10182 12.4086 4.76585 12.1576 5.36807C11.9083 5.96613 11.3249 6.35257 10.6713 6.35257H10.3125V12.165Z" fill="current"/>
</g>
<defs>
<clipPath id="clip0_40_188">
<rect width="16" height="16" fill="current" transform="translate(0 0.915039)"/>
</clipPath>
</defs>
</svg>
