<svg width="18" height="18" viewBox="0 0 18 18" fill="none" xmlns="http://www.w3.org/2000/svg">
<g clip-path="url(#clip0_40_172)">
<path d="M5.23475 14.2044V5.5956C5.23475 3.84884 6.64909 2.43283 8.3938 2.43283H6.47029C4.72061 2.43283 3.30225 3.84941 3.30225 5.59689V14.2031C3.30225 15.9506 4.72061 17.3672 6.47029 17.3672H8.3938C6.64909 17.3672 5.23475 15.9512 5.23475 14.2044Z" fill="#FAFAFC"/>
<path d="M12.3313 18.0001H6.50209C4.40586 18.0001 2.70044 16.2968 2.70044 14.2032V5.59693C2.70044 3.50333 4.40586 1.80005 6.50209 1.80005H12.3313C14.4275 1.80005 16.1329 3.50333 16.1329 5.59693V14.2032C16.1329 16.2968 14.4275 18.0001 12.3313 18.0001Z" fill="current"/>
<path d="M11.0264 1.1385H12.2643C12.5789 1.1385 12.8343 1.39352 12.8343 1.70775V2.84625H12.8377C12.8377 4.06752 11.8428 5.0611 10.62 5.0611H8.21232C6.98952 5.0611 5.99469 4.06752 5.99469 2.84625V2.719V1.70775C5.99469 1.39352 6.25003 1.1385 6.56466 1.1385H7.80148C8.03745 0.475893 8.67125 0 9.41449 0C10.1577 0 10.7915 0.475893 11.0264 1.1385Z" fill="current"/>
<path fill-rule="evenodd" clip-rule="evenodd" d="M12.5297 3.97125C12.1433 4.62309 11.4319 5.0611 10.62 5.0611H8.21232C6.98952 5.0611 5.99469 4.06752 5.99469 2.84625V1.70775C5.99469 1.39352 6.25003 1.1385 6.56466 1.1385H7.80148C8.03745 0.475893 8.67125 0 9.41449 0C10.1577 0 10.7915 0.475893 11.0264 1.1385H12.2643C12.5789 1.1385 12.8343 1.39352 12.8343 1.70775V2.84625H12.8377C12.8377 2.88752 12.8365 2.92854 12.8343 2.96926C12.8142 3.33347 12.7057 3.67452 12.5297 3.97125ZM13.9593 1.72125H13.9627V2.84625C13.9627 4.69017 12.4628 6.1861 10.62 6.1861H8.21232C6.36953 6.1861 4.86969 4.69017 4.86969 2.84625V1.70775C4.86969 0.770872 5.63005 0.0135008 6.56466 0.0135008H7.14321C7.65994 -0.676347 8.48406 -1.125 9.41449 -1.125C10.3444 -1.125 11.1688 -0.676692 11.6853 0.0135008H12.2643C13.1989 0.0135008 13.9593 0.770871 13.9593 1.70775V1.72125Z" fill="#FAFAFC"/>
<path d="M12.363 12.9096H7.00905C6.65911 12.9096 6.37544 12.6263 6.37544 12.2768C6.37544 11.9273 6.65911 11.644 7.00905 11.644H12.363C12.713 11.644 12.9966 11.9273 12.9966 12.2768C12.9966 12.6263 12.713 12.9096 12.363 12.9096ZM12.9966 9.84044C12.9966 9.49093 12.713 9.20762 12.363 9.20762H11.1275C10.7776 9.20762 10.4939 9.49093 10.4939 9.84044C10.4939 10.1899 10.7776 10.4732 11.1275 10.4732H12.363C12.713 10.4732 12.9966 10.1899 12.9966 9.84044ZM8.77682 10.0943L9.99341 8.86872C10.2398 8.62053 10.2381 8.21987 9.98954 7.9738C9.74107 7.72776 9.3399 7.72944 9.09349 7.97766L7.87687 9.20323C7.87107 9.20905 7.86388 9.20902 7.85811 9.20323L7.26886 8.60962C7.02248 8.3614 6.62131 8.35969 6.37281 8.60576C6.12431 8.85182 6.1226 9.25249 6.36894 9.50068L6.9582 10.0943C7.20078 10.3386 7.5237 10.4732 7.86749 10.4732C8.21135 10.4732 8.53427 10.3387 8.77682 10.0943Z" fill="#FAFAFC"/>
</g>
<defs>
<clipPath id="clip0_40_172">
<rect width="18" height="18" fill="white"/>
</clipPath>
</defs>
</svg>
